<svg width="197" height="46" viewBox="0 0 197 46" fill="none" xmlns="http://www.w3.org/2000/svg">
<path d="M24 44C28.0578 44 31.3333 40.8267 31.3333 37V30H38.6667C42.7244 30 46 26.8267 46 23C46 19.1733 42.6756 16 38.6667 16L16.6667 16V25.8L16.6667 37C16.6667 40.8733 19.9422 44 24 44Z" stroke="#404040" stroke-width="3" stroke-miterlimit="10" stroke-linecap="round" stroke-linejoin="round"></path>
<path d="M24 2C19.9422 2 16.6667 5.17333 16.6667 9V16H9.33333C5.27556 16 2 19.1733 2 23C2 26.8267 5.32444 30 9.33333 30H31.3333V20.2V9C31.3333 5.12667 28.0578 2 24 2Z" fill="#FFDC34" stroke="#404040" stroke-width="3" stroke-miterlimit="10" stroke-linecap="round" stroke-linejoin="round"></path>
<path d="M71.204 35.18C69.308 35.18 67.604 34.748 66.092 33.884C64.58 32.996 63.38 31.796 62.492 30.284C61.628 28.772 61.196 27.056 61.196 25.136C61.196 23.24 61.616 21.536 62.456 20.024C63.32 18.512 64.484 17.324 65.948 16.46C67.412 15.572 69.068 15.128 70.916 15.128C72.524 15.128 73.976 15.476 75.272 16.172C76.568 16.844 77.612 17.744 78.404 18.872V8.288C78.404 7.856 78.536 7.52 78.8 7.28C79.064 7.016 79.4 6.884 79.808 6.884C80.216 6.884 80.552 7.016 80.816 7.28C81.08 7.52 81.212 7.856 81.212 8.288V25.28C81.164 27.152 80.696 28.844 79.808 30.356C78.944 31.844 77.756 33.02 76.244 33.884C74.756 34.748 73.076 35.18 71.204 35.18ZM71.204 32.66C72.596 32.66 73.832 32.336 74.912 31.688C76.016 31.016 76.88 30.116 77.504 28.988C78.152 27.86 78.476 26.576 78.476 25.136C78.476 23.72 78.152 22.448 77.504 21.32C76.88 20.168 76.016 19.268 74.912 18.62C73.832 17.972 72.596 17.648 71.204 17.648C69.836 17.648 68.6 17.972 67.496 18.62C66.392 19.268 65.516 20.168 64.868 21.32C64.22 22.448 63.896 23.72 63.896 25.136C63.896 26.576 64.22 27.86 64.868 28.988C65.516 30.116 66.392 31.016 67.496 31.688C68.6 32.336 69.836 32.66 71.204 32.66ZM96.6571 35.18C94.7371 35.18 93.0211 34.748 91.5091 33.884C89.9971 33.02 88.8091 31.832 87.9451 30.32C87.0811 28.808 86.6491 27.092 86.6491 25.172C86.6491 23.228 87.0811 21.5 87.9451 19.988C88.8091 18.476 89.9971 17.288 91.5091 16.424C93.0211 15.56 94.7371 15.128 96.6571 15.128C98.5771 15.128 100.281 15.56 101.769 16.424C103.281 17.288 104.469 18.476 105.333 19.988C106.197 21.5 106.641 23.228 106.665 25.172C106.665 27.092 106.221 28.808 105.333 30.32C104.469 31.832 103.281 33.02 101.769 33.884C100.281 34.748 98.5771 35.18 96.6571 35.18ZM96.6571 32.66C98.0491 32.66 99.2971 32.336 100.401 31.688C101.505 31.04 102.369 30.152 102.993 29.024C103.617 27.896 103.929 26.612 103.929 25.172C103.929 23.732 103.617 22.448 102.993 21.32C102.369 20.168 101.505 19.268 100.401 18.62C99.2971 17.972 98.0491 17.648 96.6571 17.648C95.2651 17.648 94.0171 17.972 92.9131 18.62C91.8091 19.268 90.9331 20.168 90.2851 21.32C89.6611 22.448 89.3491 23.732 89.3491 25.172C89.3491 26.612 89.6611 27.896 90.2851 29.024C90.9331 30.152 91.8091 31.04 92.9131 31.688C94.0171 32.336 95.2651 32.66 96.6571 32.66ZM120.84 35.18C118.944 35.18 117.252 34.748 115.764 33.884C114.3 32.996 113.136 31.796 112.272 30.284C111.432 28.772 111.012 27.068 111.012 25.172C111.012 23.252 111.42 21.536 112.236 20.024C113.052 18.512 114.168 17.324 115.584 16.46C117 15.572 118.632 15.128 120.48 15.128C121.944 15.128 123.288 15.416 124.512 15.992C125.76 16.568 126.852 17.432 127.788 18.584C128.052 18.872 128.148 19.184 128.076 19.52C128.004 19.832 127.8 20.108 127.464 20.348C127.2 20.54 126.9 20.612 126.564 20.564C126.252 20.492 125.976 20.312 125.736 20.024C124.344 18.44 122.592 17.648 120.48 17.648C119.136 17.648 117.948 17.972 116.916 18.62C115.908 19.268 115.116 20.156 114.54 21.284C113.988 22.412 113.712 23.708 113.712 25.172C113.712 26.612 114.012 27.896 114.612 29.024C115.212 30.152 116.052 31.04 117.132 31.688C118.212 32.336 119.448 32.66 120.84 32.66C121.776 32.66 122.628 32.54 123.396 32.3C124.188 32.036 124.884 31.64 125.484 31.112C125.772 30.872 126.072 30.74 126.384 30.716C126.696 30.692 126.984 30.788 127.248 31.004C127.536 31.268 127.692 31.568 127.716 31.904C127.764 32.24 127.656 32.528 127.392 32.768C125.64 34.376 123.456 35.18 120.84 35.18ZM135.95 35C135.59 35 135.278 34.88 135.014 34.64C134.75 34.376 134.618 34.028 134.618 33.596V15.344C134.618 13.664 134.906 12.188 135.482 10.916C136.058 9.644 136.91 8.66 138.038 7.964C139.166 7.244 140.546 6.884 142.178 6.884C142.586 6.884 142.922 7.004 143.186 7.244C143.45 7.484 143.582 7.784 143.582 8.144C143.582 8.504 143.45 8.804 143.186 9.044C142.922 9.284 142.586 9.404 142.178 9.404C141.098 9.404 140.198 9.656 139.478 10.16C138.782 10.64 138.254 11.324 137.894 12.212C137.558 13.076 137.39 14.072 137.39 15.2V33.596C137.39 34.028 137.258 34.376 136.994 34.64C136.754 34.88 136.406 35 135.95 35ZM132.314 18.44C131.93 18.44 131.618 18.332 131.378 18.116C131.162 17.876 131.054 17.588 131.054 17.252C131.054 16.892 131.162 16.604 131.378 16.388C131.618 16.148 131.93 16.028 132.314 16.028H141.71C142.094 16.028 142.394 16.148 142.61 16.388C142.85 16.604 142.97 16.892 142.97 17.252C142.97 17.588 142.85 17.876 142.61 18.116C142.394 18.332 142.094 18.44 141.71 18.44H132.314ZM154.658 35.18C152.81 35.18 151.154 34.748 149.69 33.884C148.226 32.996 147.062 31.796 146.198 30.284C145.358 28.772 144.938 27.068 144.938 25.172C144.938 23.252 145.37 21.536 146.234 20.024C147.122 18.512 148.322 17.324 149.834 16.46C151.346 15.572 153.05 15.128 154.946 15.128C156.842 15.128 158.534 15.572 160.022 16.46C161.534 17.324 162.722 18.512 163.586 20.024C164.474 21.536 164.93 23.252 164.954 25.172L163.838 26.036C163.838 27.764 163.43 29.324 162.614 30.716C161.822 32.084 160.73 33.176 159.338 33.992C157.97 34.784 156.41 35.18 154.658 35.18ZM154.946 32.66C156.338 32.66 157.574 32.336 158.654 31.688C159.758 31.04 160.622 30.152 161.246 29.024C161.894 27.872 162.218 26.588 162.218 25.172C162.218 23.732 161.894 22.448 161.246 21.32C160.622 20.192 159.758 19.304 158.654 18.656C157.574 17.984 156.338 17.648 154.946 17.648C153.578 17.648 152.342 17.984 151.238 18.656C150.134 19.304 149.258 20.192 148.61 21.32C147.962 22.448 147.638 23.732 147.638 25.172C147.638 26.588 147.962 27.872 148.61 29.024C149.258 30.152 150.134 31.04 151.238 31.688C152.342 32.336 153.578 32.66 154.946 32.66ZM163.55 35C163.142 35 162.806 34.88 162.542 34.64C162.278 34.376 162.146 34.04 162.146 33.632V27.476L162.83 24.632L164.954 25.172V33.632C164.954 34.04 164.822 34.376 164.558 34.64C164.294 34.88 163.958 35 163.55 35ZM175.988 35C175.412 35 174.98 34.688 174.692 34.064L166.7 17.108C166.556 16.796 166.544 16.484 166.664 16.172C166.784 15.86 167.024 15.62 167.384 15.452C167.72 15.284 168.044 15.26 168.356 15.38C168.668 15.5 168.908 15.716 169.076 16.028L176.744 32.624H175.268L182.828 16.028C182.972 15.692 183.212 15.476 183.548 15.38C183.908 15.26 184.256 15.272 184.592 15.416C184.928 15.584 185.156 15.836 185.276 16.172C185.396 16.484 185.384 16.784 185.24 17.072L177.356 34.064C177.068 34.688 176.612 35 175.988 35Z" fill="#404040"></path>
</svg>
